<svg width="20" height="20" viewBox="0 0 20 20" fill="none" xmlns="http://www.w3.org/2000/svg">
<path d="M16.8554 17.0413H14.0402V12.4004C14.0402 11.2937 14.0214 9.86912 12.576 9.86912C11.1098 9.86912 10.8854 11.0749 10.8854 12.3199V17.041H8.07019V7.49741H10.7728V8.80165H10.8106C11.0811 8.31485 11.4719 7.91439 11.9415 7.64291C12.4111 7.37143 12.9418 7.23911 13.4772 7.26003C16.3305 7.26003 16.8566 9.23567 16.8566 11.8059L16.8554 17.0413ZM4.89371 6.19287C4.57059 6.19293 4.25471 6.09213 3.98602 5.90321C3.71732 5.71429 3.5079 5.44574 3.38419 5.13153C3.26049 4.81731 3.22807 4.47153 3.29105 4.13792C3.35403 3.80431 3.50958 3.49785 3.73801 3.2573C3.96645 3.01675 4.25752 2.8529 4.57441 2.78649C4.89131 2.72007 5.21979 2.75406 5.51833 2.88417C5.81688 3.01428 6.07206 3.23465 6.25162 3.51743C6.43118 3.8002 6.52706 4.13268 6.52712 4.47282C6.52716 4.69866 6.48493 4.92229 6.40286 5.13095C6.3208 5.33962 6.20051 5.52922 6.04883 5.68895C5.89715 5.84867 5.71707 5.97538 5.51887 6.06184C5.32068 6.1483 5.10825 6.19282 4.89371 6.19287ZM6.30131 17.0413H3.48317V7.49741H6.30131V17.0413ZM18.2589 0.00136263H2.06854C1.70106 -0.00300274 1.34696 0.146386 1.08406 0.416702C0.821166 0.687018 0.670989 1.05614 0.666504 1.44297V18.5567C0.670835 18.9438 0.820924 19.3131 1.08381 19.5837C1.3467 19.8543 1.70088 20.004 2.06854 19.9999H18.2589C18.6273 20.0047 18.9825 19.8555 19.2464 19.5849C19.5103 19.3143 19.6614 18.9445 19.6665 18.5567V1.44174C19.6613 1.05414 19.5101 0.684596 19.2461 0.414287C18.9822 0.143978 18.6271 -0.00498453 18.2589 0.000127351" fill="#F5F5F5"/>
</svg>
