<svg width="79" height="79" viewBox="0 0 79 79" fill="none" xmlns="http://www.w3.org/2000/svg">
<g opacity="0.6">
<path fill-rule="evenodd" clip-rule="evenodd" d="M39.1543 0.0754395L63.0759 23.997L54.053 33.02L39.1543 18.1213L24.2556 33.02L15.2327 23.997L39.1543 0.0754395ZM64.6984 43.6654L60.2534 39.2204L60.3199 39.1539L60.2534 39.0874L64.6984 34.6425L64.7649 34.709L69.2764 30.1975L78.2328 39.1539L69.2764 48.1104L64.7649 43.5989L64.6984 43.6654ZM39.1543 60.1866L54.053 45.2879L63.0759 54.3108L39.1543 78.2325L15.2327 54.3108L24.2556 45.2879L39.1543 60.1866ZM13.6102 34.6425L18.0552 39.0874L17.9887 39.1539L18.0552 39.2204L13.6102 43.6654L13.5437 43.5989L9.03223 48.1104L0.0757896 39.1539L9.03223 30.1975L13.5437 34.709L13.6102 34.6425Z" fill="#E5ADF4"/>
<path d="M39.1543 30.3058L48.0025 39.154L39.1543 48.0022L30.3061 39.154L39.1543 30.3058Z" fill="#E5ADF4"/>
</g>
</svg>
