<svg width="55" height="55" viewBox="0 0 55 55" fill="none" xmlns="http://www.w3.org/2000/svg">
<path d="M47.2793 22.1805C48.1043 16.6685 43.9056 13.7053 38.1643 11.7286L40.0267 4.26183L35.4795 3.12913L33.6664 10.3991C32.471 10.1014 31.2432 9.82049 30.0232 9.54217L31.8493 2.22425L27.3047 1.09155L25.4411 8.55572C24.4516 8.33047 23.4803 8.10785 22.5374 7.87354L22.5426 7.85023L16.2717 6.28514L15.062 11.1396C15.062 11.1396 18.4358 11.9124 18.3646 11.9603C20.2062 12.4199 20.5391 13.638 20.4834 14.6037L18.362 23.11C18.4889 23.1423 18.6534 23.1889 18.8347 23.2614C18.6832 23.2239 18.5213 23.1825 18.3542 23.1423L15.3806 35.0584C15.1553 35.6176 14.5841 36.4564 13.2968 36.138C13.3421 36.204 9.99166 35.3134 9.99166 35.3134L7.73425 40.5161L13.6516 41.9905C14.7525 42.2662 15.8313 42.5549 16.8933 42.8267L15.0115 50.379L19.5535 51.5117L21.4172 44.0397C22.6579 44.3763 23.8623 44.687 25.0409 44.9795L23.1837 52.4165L27.7309 53.5492L29.6127 46.0113C37.3665 47.478 43.1971 46.8863 45.6514 39.8765C47.629 34.2325 45.5529 30.9768 41.4733 28.8538C44.4443 28.169 46.6823 26.2155 47.2793 22.1805V22.1805ZM36.8899 36.7425C35.4847 42.3866 25.9773 39.3354 22.8949 38.5704L25.3919 28.5651C28.4743 29.334 38.3586 30.8564 36.8899 36.7425ZM38.2964 22.099C37.0142 27.233 29.1011 24.6246 26.5342 23.9851L28.798 14.9105C31.365 15.55 39.6317 16.7435 38.2964 22.099Z" fill="#E5ADF4"/>
</svg>
