<svg width="54" height="54" viewBox="0 0 54 54" fill="none" xmlns="http://www.w3.org/2000/svg">
<path d="M52.6806 27.9855V39.3889C52.6764 40.1 52.4857 40.7979 52.127 41.4142C51.7683 42.0306 51.254 42.5444 50.6343 42.9055L40.6433 48.5953C40.0245 48.96 39.3176 49.1525 38.5971 49.1525C37.8768 49.1525 37.1697 48.96 36.551 48.5953L26.5599 42.9055C25.9402 42.5444 25.4259 42.0306 25.0672 41.4142C24.7086 40.7979 24.5179 40.1 24.5137 39.3889V36.1883L29.6291 33.2525V38.8159L38.5812 43.9525L47.5331 38.8159V28.5663L38.5812 23.4296L17.6079 35.4415C16.9833 35.7895 16.2786 35.9723 15.5617 35.9723C14.8449 35.9723 14.1401 35.7895 13.5156 35.4415L3.52445 29.728C2.91431 29.3615 2.40993 28.8458 2.05986 28.2304C1.70989 27.6152 1.52614 26.9212 1.52625 26.2153V14.8119C1.53039 14.1007 1.72116 13.4029 2.07984 12.7865C2.43841 12.1701 2.95279 11.6563 3.57238 11.2952L13.5635 5.60539C14.1836 5.24435 14.89 5.05396 15.6096 5.05396C16.3293 5.05396 17.0357 5.24435 17.6559 5.60539L27.647 11.2952C28.2666 11.6563 28.7809 12.1701 29.1395 12.7865C29.4982 13.4029 29.689 14.1007 29.6931 14.8119V18.0124L24.5457 20.9284V15.3966L15.5937 10.26L6.64163 15.3966V25.6344L15.5937 30.7712L36.5669 18.7593C37.1915 18.4112 37.8962 18.2285 38.6132 18.2285C39.33 18.2285 40.0347 18.4112 40.6593 18.7593L50.6504 24.4727C51.2665 24.8354 51.7772 25.3495 52.1329 25.965C52.4888 26.5805 52.6774 27.2766 52.6806 27.9855Z" fill="#E5ADF4"/>
</svg>
