<svg width="83" height="60" viewBox="0 0 83 60" fill="none" xmlns="http://www.w3.org/2000/svg">
<g clip-path="url(#clip0_2_19462)">
<path fill-rule="evenodd" clip-rule="evenodd" d="M23.4741 28.6272C24.5702 28.1457 25.2845 27.0889 25.31 25.9127C25.3351 24.7365 24.6665 23.6512 23.5924 23.1251L14.2905 18.5689C13.4262 18.1456 12.4101 18.1401 11.5413 18.554L1.97655 23.1102C0.886062 23.6298 0.203232 24.7237 0.228201 25.9116C0.253171 27.0997 0.981355 28.1648 2.09325 28.6399L11.658 32.7266C12.4606 33.0696 13.3737 33.0651 14.1728 32.714L23.4741 28.6272ZM3.3361 25.8487L12.9004 29.9354L22.2022 25.8487L12.9004 21.2925L3.3361 25.8487Z" fill="#F5F5F5"/>
<path fill-rule="evenodd" clip-rule="evenodd" d="M19.6858 9.43012C17.6048 10.5505 17.5749 13.4608 19.6327 14.6216L37.7851 24.8615L17.5802 35.7678C14.4847 37.4387 14.2151 41.6836 17.0755 43.715L37.5885 58.2843C39.7093 59.7907 42.5785 59.806 44.7161 58.323L65.7258 43.7466C68.6448 41.7213 68.3737 37.4077 65.2226 35.7465L44.556 24.849L62.6385 14.6257C64.698 13.4613 64.6615 10.546 62.5738 9.43088L45.7058 0.894479C44.8429 0.43361 43.7609 0.742994 43.2889 1.58551C42.817 2.42803 43.1338 3.48463 43.9966 3.9455L60.0717 12.0583L41.1615 22.7497L22.1947 12.0506L37.7229 3.90286C38.5843 3.43918 38.8976 2.38155 38.4226 1.54058C37.9477 0.69961 36.8647 0.393748 36.0034 0.857427L19.6858 9.43012ZM19.3032 38.8113C18.4886 39.2511 18.4177 40.3681 19.1704 40.9027L39.6835 55.4719C40.5672 56.0998 41.7627 56.1062 42.6533 55.4882L63.6626 40.9118C64.431 40.3787 64.3598 39.2437 63.5305 38.8064L41.5294 27.2055C41.3008 27.0848 41.025 27.0862 40.7976 27.2089L19.3032 38.8113Z" fill="#F5F5F5"/>
<path fill-rule="evenodd" clip-rule="evenodd" d="M82.4224 25.9525C82.3971 27.1287 81.6826 28.1855 80.5867 28.667L71.285 32.7538C70.486 33.1049 69.5728 33.1095 68.7702 32.7664L59.2057 28.6797C58.0938 28.2046 57.3656 27.1395 57.3405 25.9514C57.3156 24.7635 57.9983 23.6696 59.089 23.15L68.6536 18.5938C69.5226 18.1798 70.5387 18.1854 71.4031 18.6087L80.7047 23.1649C81.7791 23.691 82.4476 24.7763 82.4224 25.9525ZM79.3148 25.8885L70.0129 21.3323L60.4483 25.8885L70.0129 29.9753L79.3148 25.8885Z" fill="#F5F5F5"/>
</g>
<defs>
<clipPath id="clip0_2_19462">
<rect width="82.1958" height="58.9328" fill="white" transform="translate(0.227539 0.601196)"/>
</clipPath>
</defs>
</svg>
