<svg width="50" height="50" viewBox="0 0 50 50" fill="none" xmlns="http://www.w3.org/2000/svg">
<path d="M14.0625 19.5312H6.25C5.38706 19.5312 4.6875 20.2308 4.6875 21.0938V28.9062C4.6875 29.7692 5.38706 30.4688 6.25 30.4688H14.0625C14.9254 30.4688 15.625 29.7692 15.625 28.9062V21.0938C15.625 20.2308 14.9254 19.5312 14.0625 19.5312Z" stroke="#C736EF" stroke-width="2" stroke-linecap="round" stroke-linejoin="round"/>
<path d="M42.1875 7.8125H32.8125C31.9496 7.8125 31.25 8.51206 31.25 9.375V18.75C31.25 19.6129 31.9496 20.3125 32.8125 20.3125H42.1875C43.0504 20.3125 43.75 19.6129 43.75 18.75V9.375C43.75 8.51206 43.0504 7.8125 42.1875 7.8125Z" stroke="#F5F5F5" stroke-width="2" stroke-linecap="round" stroke-linejoin="round"/>
<path d="M42.1875 29.6875H32.8125C31.9496 29.6875 31.25 30.3871 31.25 31.25V40.625C31.25 41.4879 31.9496 42.1875 32.8125 42.1875H42.1875C43.0504 42.1875 43.75 41.4879 43.75 40.625V31.25C43.75 30.3871 43.0504 29.6875 42.1875 29.6875Z" stroke="#F5F5F5" stroke-width="2" stroke-linecap="round" stroke-linejoin="round"/>
<path d="M15.625 25H23.4375" stroke="#C736EF" stroke-width="2" stroke-linecap="round" stroke-linejoin="round"/>
<path d="M31.25 35.9375H28.125C27.5087 35.9401 26.898 35.8206 26.3282 35.5859C25.7583 35.3513 25.2405 35.0061 24.8047 34.5703C24.3689 34.1345 24.0237 33.6168 23.7891 33.0469C23.5544 32.477 23.435 31.8663 23.4375 31.25V18.75C23.435 18.1337 23.5544 17.523 23.7891 16.9531C24.0237 16.3832 24.3689 15.8655 24.8047 15.4297C25.2405 14.9939 25.7583 14.6487 26.3282 14.414C26.898 14.1794 27.5087 14.0599 28.125 14.0625H31.25" stroke="#F5F5F5" stroke-width="2" stroke-linecap="round" stroke-linejoin="round"/>
</svg>
