<svg width="50" height="50" viewBox="0 0 50 50" fill="none" xmlns="http://www.w3.org/2000/svg">
<path d="M14.4335 21.7578L8.30071 29.1016C8.14621 29.2818 8.03719 29.4965 7.98282 29.7276C7.92844 29.9587 7.93029 30.1995 7.98821 30.4297L10.3905 41.3086C10.4485 41.5672 10.5713 41.8068 10.7474 42.0049C10.9234 42.2029 11.147 42.353 11.397 42.4409C11.647 42.5287 11.9152 42.5516 12.1765 42.5073C12.4378 42.463 12.6835 42.3529 12.8905 42.1875L18.7499 37.5" stroke="#C736EF" stroke-width="2" stroke-linecap="round" stroke-linejoin="round"/>
<path d="M35.4492 21.6016L41.6992 29.1016C41.8537 29.2818 41.9627 29.4965 42.0171 29.7276C42.0715 29.9587 42.0696 30.1995 42.0117 30.4297L39.6094 41.3086C39.5514 41.5672 39.4286 41.8068 39.2526 42.0049C39.0765 42.2029 38.853 42.353 38.6029 42.4409C38.3529 42.5287 38.0847 42.5516 37.8234 42.5073C37.5621 42.463 37.3164 42.3529 37.1094 42.1875L31.25 37.5" stroke="#C736EF" stroke-width="2" stroke-linecap="round" stroke-linejoin="round"/>
<path d="M28.125 43.75H21.875" stroke="#F5F5F5" stroke-width="2" stroke-linecap="round" stroke-linejoin="round"/>
<path d="M24.0233 3.86719C20.3124 6.83593 7.91005 18.7109 18.7499 37.5H31.2499C41.8749 18.7109 29.6483 6.85547 25.9765 3.86719C25.7025 3.63836 25.3569 3.51302 24.9999 3.51302C24.6429 3.51302 24.2973 3.63836 24.0233 3.86719Z" stroke="#F5F5F5" stroke-width="2" stroke-linecap="round" stroke-linejoin="round"/>
<path d="M25 21.0938C26.2944 21.0938 27.3438 20.0444 27.3438 18.75C27.3438 17.4556 26.2944 16.4062 25 16.4062C23.7056 16.4062 22.6562 17.4556 22.6562 18.75C22.6562 20.0444 23.7056 21.0938 25 21.0938Z" fill="#F5F5F5"/>
</svg>
