<svg width="51" height="50" viewBox="0 0 51 50" fill="none" xmlns="http://www.w3.org/2000/svg">
<path d="M15.958 25C15.958 21.9097 16.8744 18.8887 18.5913 16.3192C20.3082 13.7497 22.7485 11.747 25.6036 10.5644C28.4587 9.38177 31.6003 9.07234 34.6313 9.67524C37.6622 10.2781 40.4464 11.7663 42.6316 13.9515C44.8167 16.1367 46.3049 18.9208 46.9078 21.9517C47.5107 24.9827 47.2012 28.1243 46.0186 30.9794C44.836 33.8345 42.8333 36.2748 40.2638 37.9917C37.6943 39.7086 34.6733 40.625 31.583 40.625H14.3955C11.4947 40.625 8.71271 39.4727 6.66153 37.4215C4.61035 35.3703 3.45801 32.5883 3.45801 29.6875C3.45801 26.7867 4.61035 24.0047 6.66153 21.9535C8.71271 19.9023 11.4947 18.75 14.3955 18.75C15.3106 18.7497 16.2223 18.8612 17.1104 19.082" stroke="#F5F5F5" stroke-width="2" stroke-linecap="round" stroke-linejoin="round"/>
<path d="M37.833 22.6562L28.458 32.0312L23.7705 27.3438" stroke="#C736EF" stroke-width="2" stroke-linecap="round" stroke-linejoin="round"/>
</svg>
