<svg width="50" height="50" viewBox="0 0 50 50" fill="none" xmlns="http://www.w3.org/2000/svg">
<path d="M39.0625 34.375V12.5C39.0651 11.8837 38.9456 11.273 38.7109 10.7031C38.4763 10.1332 38.1311 9.61546 37.6953 9.17967C37.2595 8.74388 36.7418 8.3987 36.1719 8.16405C35.602 7.92939 34.9913 7.80991 34.375 7.8125H7.8125" stroke="#F5F5F5" stroke-width="2" stroke-linecap="round" stroke-linejoin="round"/>
<path d="M20.3125 20.3125H32.8125" stroke="#C736EF" stroke-width="2" stroke-linecap="round" stroke-linejoin="round"/>
<path d="M20.3125 26.5625H32.8125" stroke="#C736EF" stroke-width="2" stroke-linecap="round" stroke-linejoin="round"/>
<path d="M4.31641 15.625C3.81042 15.0585 3.4497 14.3775 3.26527 13.6406C3.08084 12.9038 3.07824 12.1332 3.25769 11.3951C3.43715 10.657 3.79327 9.97358 4.29542 9.40366C4.79757 8.83374 5.43069 8.39439 6.1403 8.12342C6.8499 7.85245 7.61472 7.75798 8.36893 7.84815C9.12314 7.93831 9.84414 8.21041 10.4699 8.64102C11.0956 9.07163 11.6073 9.64785 11.961 10.3201C12.3146 10.9923 12.4996 11.7404 12.5 12.5V37.5C12.5004 38.2596 12.6854 39.0077 13.039 39.6799C13.3927 40.3521 13.9044 40.9284 14.5301 41.359C15.1559 41.7896 15.8769 42.0617 16.6311 42.1519C17.3853 42.242 18.1501 42.1476 18.8597 41.8766C19.5693 41.6056 20.2024 41.1663 20.7046 40.5963C21.2067 40.0264 21.5629 39.343 21.7423 38.6049C21.9218 37.8668 21.9192 37.0962 21.7347 36.3594C21.5503 35.6225 21.1896 34.9415 20.6836 34.375H42.5586C43.162 35.0496 43.5572 35.8845 43.6964 36.7788C43.8357 37.6731 43.7131 38.5886 43.3434 39.4147C42.9737 40.2408 42.3727 40.9423 41.6131 41.4343C40.8534 41.9263 39.9676 42.1879 39.0625 42.1875H17.1875" stroke="#F5F5F5" stroke-width="2" stroke-linecap="round" stroke-linejoin="round"/>
</svg>
