<svg width="20" height="20" viewBox="0 0 20 20" fill="none" xmlns="http://www.w3.org/2000/svg">
<path d="M16.5219 17.0413H13.7067V12.4004C13.7067 11.2937 13.6879 9.86912 12.2425 9.86912C10.7763 9.86912 10.5519 11.0749 10.5519 12.3199V17.041H7.7367V7.49741H10.4393V8.80165H10.4771C10.7476 8.31485 11.1384 7.91439 11.608 7.64291C12.0776 7.37143 12.6083 7.23911 13.1437 7.26003C15.997 7.26003 16.5231 9.23568 16.5231 11.8059L16.5219 17.0413ZM4.56021 6.19287C4.2371 6.19293 3.92121 6.09213 3.65252 5.90321C3.38383 5.71429 3.1744 5.44574 3.0507 5.13152C2.92699 4.81731 2.89457 4.47153 2.95755 4.13792C3.02053 3.80431 3.17608 3.49785 3.40452 3.2573C3.63295 3.01675 3.92402 2.8529 4.24092 2.78649C4.55781 2.72007 4.8863 2.75406 5.18484 2.88417C5.48338 3.01428 5.73856 3.23465 5.91813 3.51743C6.09769 3.8002 6.19356 4.13268 6.19362 4.47282C6.19366 4.69866 6.15143 4.92229 6.06937 5.13095C5.9873 5.33962 5.86701 5.52922 5.71533 5.68895C5.56366 5.84867 5.38357 5.97538 5.18537 6.06184C4.98718 6.1483 4.77475 6.19282 4.56021 6.19287M5.96781 17.0413H3.14968V7.49741H5.96781V17.0413ZM17.9254 0.00136263H1.73504C1.36757 -0.00300274 1.01346 0.146386 0.750564 0.416702C0.487669 0.687018 0.337493 1.05614 0.333008 1.44297V18.5567C0.337339 18.9437 0.487428 19.3131 0.750314 19.5837C1.0132 19.8543 1.36738 20.004 1.73504 19.9999H17.9254C18.2938 20.0047 18.649 19.8555 18.9129 19.5849C19.1768 19.3143 19.3279 18.9445 19.333 18.5567V1.44174C19.3278 1.05414 19.1766 0.684596 18.9126 0.414287C18.6487 0.143978 18.2936 -0.00498453 17.9254 0.000127351" fill="#F5F5F5"/>
</svg>
