<svg width="57" height="42" viewBox="0 0 57 42" fill="none" xmlns="http://www.w3.org/2000/svg">
<g clip-path="url(#clip0_1_18158)">
<path fill-rule="evenodd" clip-rule="evenodd" d="M16.0995 19.6032C16.8586 19.2664 17.3533 18.5272 17.3709 17.7045C17.3883 16.8818 16.9253 16.1226 16.1814 15.7547L9.73935 12.5678C9.14081 12.2716 8.43711 12.2678 7.83541 12.5573L1.21129 15.7442C0.456063 16.1077 -0.0168339 16.8728 0.000458674 17.7037C0.0177512 18.5347 0.522058 19.2798 1.29211 19.6121L7.91622 22.4706C8.47204 22.7105 9.10446 22.7074 9.65782 22.4618L16.0995 19.6032ZM2.15285 17.6597L8.77661 20.5183L15.2186 17.6597L8.77661 14.4728L2.15285 17.6597Z" fill="url(#paint0_linear_1_18158)"/>
<path fill-rule="evenodd" clip-rule="evenodd" d="M13.4754 6.1756C12.0342 6.95928 12.0135 8.99492 13.4386 9.80685L26.0101 16.9693L12.0171 24.5979C9.87336 25.7667 9.68664 28.7358 11.6676 30.1568L25.8739 40.3475C27.3428 41.4011 29.3298 41.4118 30.8103 40.3746L45.3606 30.1788C47.3821 28.7622 47.1944 25.745 45.0121 24.583L30.6993 16.9606L43.2224 9.8097C44.6488 8.9953 44.6235 6.95609 43.1777 6.17613L31.4956 0.205199C30.898 -0.117163 30.1487 0.0992406 29.8218 0.688552C29.495 1.27786 29.7144 2.01692 30.312 2.33929L41.4448 8.01392L28.3484 15.4922L15.2129 8.00853L25.9671 2.30947C26.5636 1.98514 26.7806 1.24536 26.4516 0.657128C26.1228 0.0688949 25.3727 -0.145045 24.7762 0.179283L13.4754 6.1756ZM13.2104 26.7268C12.6463 27.0344 12.5972 27.8157 13.1184 28.1896L27.3249 38.3803C27.9369 38.8195 28.7648 38.824 29.3817 38.3917L43.9317 28.196C44.4638 27.8231 44.4145 27.0292 43.8402 26.7234L28.6033 18.6089C28.4449 18.5245 28.254 18.5254 28.0964 18.6113L13.2104 26.7268Z" fill="url(#paint1_linear_1_18158)"/>
<path fill-rule="evenodd" clip-rule="evenodd" d="M56.9237 17.7324C56.9062 18.5551 56.4114 19.2943 55.6524 19.6311L49.2105 22.4897C48.6572 22.7353 48.0247 22.7384 47.4688 22.4985L40.845 19.64C40.0749 19.3077 39.5706 18.5626 39.5532 17.7316C39.536 16.9007 40.0087 16.1356 40.7641 15.7721L47.3881 12.5852C47.99 12.2957 48.6937 12.2995 49.2923 12.5957L55.7342 15.7826C56.4782 16.1505 56.9412 16.9097 56.9237 17.7324ZM54.7715 17.6876L48.3295 14.5007L41.7055 17.6876L48.3295 20.5462L54.7715 17.6876Z" fill="url(#paint2_linear_1_18158)"/>
</g>
<defs>
<linearGradient id="paint0_linear_1_18158" x1="2.28285e-10" y1="-2.52146e-05" x2="0.133627" y2="-2.52146e-05" gradientUnits="userSpaceOnUse">
<stop stop-color="#912BE2"/>
<stop offset="0.307292" stop-color="#B11DD0"/>
<stop offset="0.609375" stop-color="#D92DE4"/>
<stop offset="1" stop-color="#B01DD0"/>
</linearGradient>
<linearGradient id="paint1_linear_1_18158" x1="-0.000204422" y1="2.82108e-05" x2="0.133422" y2="2.82108e-05" gradientUnits="userSpaceOnUse">
<stop stop-color="#912BE2"/>
<stop offset="0.307292" stop-color="#B11DD0"/>
<stop offset="0.609375" stop-color="#D92DE4"/>
<stop offset="1" stop-color="#B01DD0"/>
</linearGradient>
<linearGradient id="paint2_linear_1_18158" x1="-0.00073437" y1="1.38137e-06" x2="0.132892" y2="1.38137e-06" gradientUnits="userSpaceOnUse">
<stop stop-color="#912BE2"/>
<stop offset="0.307292" stop-color="#B11DD0"/>
<stop offset="0.609375" stop-color="#D92DE4"/>
<stop offset="1" stop-color="#B01DD0"/>
</linearGradient>
<clipPath id="clip0_1_18158">
<rect width="56.925" height="41.2216" fill="white"/>
</clipPath>
</defs>
</svg>
